<!-- SVG Sprite -->
<svg width="0" height="0" class="hidden">
  <symbol xmlns="http://www.w3.org/2000/svg" viewBox="0 0 24 24" id="pause">
    <path d="M16 2C15.2044 2 14.4413 2.31607 13.8787 2.87868C13.3161 3.44129 13 4.20435 13 5V19C13 19.7956 13.3161 20.5587 13.8787 21.1213C14.4413 21.6839 15.2044 22 16 22C16.7956 22 17.5587 21.6839 18.1213 21.1213C18.6839 20.5587 19 19.7956 19 19V5C19 4.20435 18.6839 3.44129 18.1213 2.87868C17.5587 2.31607 16.7956 2 16 2ZM8 2C7.20435 2 6.44129 2.31607 5.87868 2.87868C5.31607 3.44129 5 4.20435 5 5V19C5 19.7956 5.31607 20.5587 5.87868 21.1213C6.44129 21.6839 7.20435 22 8 22C8.79565 22 9.55871 21.6839 10.1213 21.1213C10.6839 20.5587 11 19.7956 11 19V5C11 4.20435 10.6839 3.44129 10.1213 2.87868C9.55871 2.31607 8.79565 2 8 2Z" fill="currentColor"/>
  </symbol>
  <symbol xmlns="http://www.w3.org/2000/svg" viewBox="0 0 24 24" id="check">
    <path d="M18.7099 7.21C18.617 7.11627 18.5064 7.04188 18.3845 6.99111C18.2627 6.94034 18.132 6.9142 17.9999 6.9142C17.8679 6.9142 17.7372 6.94034 17.6154 6.99111C17.4935 7.04188 17.3829 7.11627 17.29 7.21L9.83995 14.67L6.70995 11.53C6.61343 11.4368 6.49949 11.3634 6.37463 11.3142C6.24978 11.265 6.11645 11.2409 5.98227 11.2432C5.84809 11.2456 5.71568 11.2743 5.5926 11.3278C5.46953 11.3813 5.35819 11.4585 5.26495 11.555C5.17171 11.6515 5.0984 11.7655 5.04919 11.8903C4.99999 12.0152 4.97586 12.1485 4.97818 12.2827C4.9805 12.4169 5.00923 12.5493 5.06272 12.6723C5.11622 12.7954 5.19343 12.9068 5.28995 13L9.12995 16.84C9.22291 16.9337 9.33351 17.0081 9.45537 17.0589C9.57723 17.1097 9.70794 17.1358 9.83995 17.1358C9.97196 17.1358 10.1027 17.1097 10.2245 17.0589C10.3464 17.0081 10.457 16.9337 10.55 16.84L18.7099 8.68C18.8115 8.58636 18.8925 8.4727 18.9479 8.3462C19.0033 8.21971 19.0319 8.0831 19.0319 7.945C19.0319 7.8069 19.0033 7.67029 18.9479 7.54379C18.8925 7.41729 18.8115 7.30364 18.7099 7.21V7.21Z" fill="currentColor"/>
  </symbol>
  <symbol xmlns="http://www.w3.org/2000/svg" viewBox="0 0 24 24" id="alert">
    <path d="M12 16a1 1 0 1 0 0 2 1 1 0 0 0 0-2Zm10.67 1.47-8.05-14a3 3 0 0 0-5.24 0l-8 14A3 3 0 0 0 3.94 22h16.12a3 3 0 0 0 2.61-4.53Zm-1.73 2a1.001 1.001 0 0 1-.88.51H3.94a1 1 0 0 1-.88-.51 1 1 0 0 1 0-1l8-14a1 1 0 0 1 1.78 0l8.05 14a1 1 0 0 1 .05 1.02v-.02ZM12 8a1 1 0 0 0-1 1v4a1 1 0 1 0 2 0V9a1 1 0 0 0-1-1Z" fill="currentColor"></path>
  </symbol>
  <symbol xmlns="http://www.w3.org/2000/svg" viewBox="0 0 24 24" id="arrow-back">
    <path fill-rule="evenodd" clip-rule="evenodd" d="m10.657 19.071-6.364-6.364a1 1 0 0 1 0-1.414l6.364-6.364a1 1 0 1 1 1.414 1.414L7.414 11H19a1 1 0 1 1 0 2H7.414l4.657 4.657a1 1 0 0 1-1.414 1.414Z" fill="currentColor"></path>
  </symbol>
  <symbol xmlns="http://www.w3.org/2000/svg" viewBox="0 0 24 24" id="arrow-forward">
    <path fill-rule="evenodd" clip-rule="evenodd" d="m13.343 19.071 6.364-6.364a1 1 0 0 0 0-1.414L13.343 4.93a1 1 0 1 0-1.414 1.414L16.586 11H5a1 1 0 1 0 0 2h11.586l-4.657 4.657a1 1 0 0 0 1.414 1.414Z" fill="currentColor"></path>
  </symbol>
  <symbol xmlns="http://www.w3.org/2000/svg" viewBox="0 0 24 24" id="book">
    <path d="M21.17 2.06A13.1 13.1 0 0 0 19 1.87a12.94 12.94 0 0 0-7 2.05 12.94 12.94 0 0 0-7-2 13.1 13.1 0 0 0-2.17.19 1 1 0 0 0-.83 1v12a1 1 0 0 0 1.17 1 10.9 10.9 0 0 1 8.25 1.91l.12.07h.11a.91.91 0 0 0 .7 0h.11l.12-.07A10.9 10.9 0 0 1 20.83 16 1 1 0 0 0 22 15V3a1 1 0 0 0-.83-.94ZM11 15.35a12.87 12.87 0 0 0-6-1.48H4v-10c.333-.02.667-.02 1 0a10.86 10.86 0 0 1 6 1.8v9.68Zm9-1.44h-1a12.87 12.87 0 0 0-6 1.48V5.67a10.86 10.86 0 0 1 6-1.8c.333-.02.667-.02 1 0v10.04Zm1.17 4.15a13.11 13.11 0 0 0-2.17-.19 12.94 12.94 0 0 0-7 2.05 12.94 12.94 0 0 0-7-2.05 13.11 13.11 0 0 0-2.17.19A1.002 1.002 0 0 0 2 19.21a1 1 0 0 0 1.17.79 10.9 10.9 0 0 1 8.25 1.91 1 1 0 0 0 1.16 0A10.9 10.9 0 0 1 20.83 20a1 1 0 0 0 1.17-.79 1 1 0 0 0-.83-1.15Z" fill="currentColor"></path>
  </symbol>
  <symbol xmlns="http://www.w3.org/2000/svg" viewBox="0 0 24 24" id="chevrone-down">
    <path d="M17 9.17a1 1 0 0 0-1.41 0L12 12.71 8.46 9.17a1 1 0 1 0-1.41 1.42l4.24 4.24a1.002 1.002 0 0 0 1.42 0L17 10.59a1.002 1.002 0 0 0 0-1.42Z" fill="currentColor"></path>
  </symbol>
  <symbol xmlns="http://www.w3.org/2000/svg" viewBox="0 0 24 24" id="calendar">
    <path d="M19 4h-2V3a1 1 0 0 0-2 0v1H9V3a1 1 0 0 0-2 0v1H5a3 3 0 0 0-3 3v12a3 3 0 0 0 3 3h14a3 3 0 0 0 3-3V7a3 3 0 0 0-3-3Zm1 15a1 1 0 0 1-1 1H5a1 1 0 0 1-1-1v-7h16v7Zm0-9H4V7a1 1 0 0 1 1-1h2v1a1 1 0 0 0 2 0V6h6v1a1 1 0 0 0 2 0V6h2a1 1 0 0 1 1 1v3Z" fill="currentColor"></path>
  </symbol>
  <symbol xmlns="http://www.w3.org/2000/svg" viewBox="0 0 24 24" id="chevrone-right">
    <path d="M9.29 16.978a1 1 0 0 1 0-1.41l3.54-3.59-3.54-3.54a1 1 0 1 1 1.42-1.41l4.24 4.24a1.001 1.001 0 0 1 0 1.42l-4.24 4.29a.999.999 0 0 1-1.42 0Z" fill="currentColor"></path>
  </symbol>
  <symbol xmlns="http://www.w3.org/2000/svg" viewBox="0 0 24 24" id="chevrone-up">
    <path d="M17 14.835a1 1 0 0 1-1.41 0L12 11.295l-3.54 3.54a1 1 0 1 1-1.41-1.42l4.24-4.24a1.001 1.001 0 0 1 1.42 0l4.29 4.24a1 1 0 0 1 0 1.42Z" fill="currentColor"></path>
  </symbol>
  <symbol xmlns="http://www.w3.org/2000/svg" viewBox="0 0 24 24" id="clock">
    <path d="M11 2a10 10 0 1 0 0 20 10 10 0 0 0 0-20Zm0 18a8 8 0 1 1 0-16 8 8 0 0 1 0 16Zm0-14a1 1 0 0 0-1 1v4.42l-2.1 1.21a1 1 0 0 0 .5 1.87 1 1 0 0 0 .5-.13l2.6-1.5.09-.09.16-.13a.863.863 0 0 0 .1-.16.891.891 0 0 0 .08-.17.65.65 0 0 0 .05-.2L12 12V7a1 1 0 0 0-1-1Z" fill="currentColor"></path>
  </symbol>
  <symbol xmlns="http://www.w3.org/2000/svg" viewBox="0 0 24 24" id="close">
    <path d="m13.41 12 4.3-4.29a1.004 1.004 0 1 0-1.42-1.42L12 10.59l-4.29-4.3a1.004 1.004 0 0 0-1.42 1.42l4.3 4.29-4.3 4.29a1 1 0 0 0 0 1.42.998.998 0 0 0 1.42 0l4.29-4.3 4.29 4.3a.998.998 0 0 0 1.42 0 .997.997 0 0 0 .219-1.095.998.998 0 0 0-.22-.325L13.41 12Z" fill="currentColor"></path>
  </symbol>
  <symbol xmlns="http://www.w3.org/2000/svg" viewBox="0 0 24 24" id="completed">
    <path d="M12 2C6.5 2 2 6.5 2 12s4.5 10 10 10 10-4.5 10-10S17.5 2 12 2Zm4.2 8.3-4.8 4.8c-.4.4-1 .4-1.4 0l-2.2-2.2c-.4-.4-.4-1 0-1.4.4-.4 1-.4 1.4 0l1.5 1.5 4.1-4.1c.4-.4 1-.4 1.4 0 .4.4.4 1 0 1.4Z" fill="currentColor"></path>
  </symbol>
  <symbol xmlns="http://www.w3.org/2000/svg" viewBox="0 0 24 24" id="custom-checkbox-round-default">
    <path fill-rule="evenodd" clip-rule="evenodd" d="M12 1a11 11 0 1 0 0 22 11 11 0 0 0 0-22Zm0 20a9 9 0 1 1 0-18 9 9 0 0 1 0 18Z" fill="currentColor"></path>
  </symbol>
  <symbol xmlns="http://www.w3.org/2000/svg" viewBox="0 0 24 24" id="courses">
    <path d="m21.49 10.19-1-.55-9-5h-.11a1.06 1.06 0 0 0-.19-.06h-.37a1.17 1.17 0 0 0-.2.06h-.11l-9 5a1 1 0 0 0 0 1.74L4 12.76v4.74a3 3 0 0 0 3 3h8a3 3 0 0 0 3-3v-4.74l2-1.12v2.86a1 1 0 1 0 2 0v-3.44a1 1 0 0 0-.51-.87ZM16 17.5a1 1 0 0 1-1 1H7a1 1 0 0 1-1-1v-3.63l4.51 2.5.15.06h.09c.083.01.167.01.25 0 .083.01.167.01.25 0h.09a.47.47 0 0 0 .15-.06l4.51-2.5v3.63Zm-5-3.14L4.06 10.5 11 6.64l6.94 3.86L11 14.36Z" fill="currentColor"></path>
  </symbol>
  <symbol xmlns="http://www.w3.org/2000/svg" viewBox="0 0 24 24" id="custom-checkbox-round-selected">
    <path d="M12 13a1 1 0 1 1 0-2 1 1 0 0 1 0 2Z" fill="currentColor"></path>
    <path fill-rule="evenodd" clip-rule="evenodd" d="M12 17a5 5 0 1 1 0-9.999A5 5 0 0 1 12 17Zm-1.667-7.494a3 3 0 1 1 3.334 4.988 3 3 0 0 1-3.334-4.988Z" fill="currentColor"></path>
    <path fill-rule="evenodd" clip-rule="evenodd" d="M12 1a11 11 0 1 0 0 22 11 11 0 0 0 0-22Zm0 20a9 9 0 1 1 0-18 9 9 0 0 1 0 18Z" fill="currentColor"></path>
    <path fill-rule="evenodd" clip-rule="evenodd" d="M12 9a3 3 0 1 0 0 6 3 3 0 0 0 0-6Zm-.556 3.832a1 1 0 1 0 1.111-1.663 1 1 0 0 0-1.11 1.662Z" fill="currentColor"></path>
  </symbol>
  <symbol xmlns="http://www.w3.org/2000/svg" viewBox="0 0 24 24" id="custom-checkbox-square-default">
    <path fill-rule="evenodd" clip-rule="evenodd" d="M18 4H6a2 2 0 0 0-2 2v12a2 2 0 0 0 2 2h12a2 2 0 0 0 2-2V6a2 2 0 0 0-2-2ZM6 2a4 4 0 0 0-4 4v12a4 4 0 0 0 4 4h12a4 4 0 0 0 4-4V6a4 4 0 0 0-4-4H6Z" fill="currentColor"></path>
  </symbol>
  <symbol xmlns="http://www.w3.org/2000/svg" viewBox="0 0 24 24" id="custom-checkbox-square-selected">
    <path fill-rule="evenodd" clip-rule="evenodd" d="M18 4H6a2 2 0 0 0-2 2v12a2 2 0 0 0 2 2h12a2 2 0 0 0 2-2V6a2 2 0 0 0-2-2ZM6 2a4 4 0 0 0-4 4v12a4 4 0 0 0 4 4h12a4 4 0 0 0 4-4V6a4 4 0 0 0-4-4H6Z" fill="currentColor"></path>
    <path d="M10.536 14.969a.998.998 0 0 1-.326-.219l-1.92-1.92a1.004 1.004 0 1 1 1.42-1.42l1.21 1.22 3.37-3.38a1.004 1.004 0 0 1 1.42 1.42l-4.08 4.08a1 1 0 0 1-1.094.219Z" fill="currentColor"></path>
  </symbol>
  <symbol xmlns="http://www.w3.org/2000/svg" viewBox="0 0 24 24" id="document">
    <path d="M20 8.94a1.307 1.307 0 0 0-.06-.27v-.09a1.07 1.07 0 0 0-.19-.28l-6-6a1.071 1.071 0 0 0-.28-.19h-.09L13.06 2H7a3 3 0 0 0-3 3v14a3 3 0 0 0 3 3h10a3 3 0 0 0 3-3V8.94Zm-6-3.53L16.59 8H14V5.41ZM18 19a1 1 0 0 1-1 1H7a1 1 0 0 1-1-1V5a1 1 0 0 1 1-1h5v5a1 1 0 0 0 1 1h5v9Z" fill="currentColor"></path>
  </symbol>
  <symbol xmlns="http://www.w3.org/2000/svg" viewBox="0 0 24 24" id="failed">
    <path d="M12 2C6.5 2 2 6.5 2 12s4.5 10 10 10 10-4.5 10-10S17.5 2 12 2Zm3.7 12.3c.4.4.4 1 0 1.4-.4.4-1 .4-1.4 0L12 13.4l-2.3 2.3c-.4.4-1 .4-1.4 0-.4-.4-.4-1 0-1.4l2.3-2.3-2.3-2.3c-.4-.4-.4-1 0-1.4.4-.4 1-.4 1.4 0l2.3 2.3 2.3-2.3c.4-.4 1-.4 1.4 0 .4.4.4 1 0 1.4L13.4 12l2.3 2.3Z" fill="currentColor"></path>
  </symbol>
  <symbol xmlns="http://www.w3.org/2000/svg" viewBox="0 0 24 24" id="laptop">
    <path fill-rule="evenodd" clip-rule="evenodd" d="M20 14h1a1 1 0 0 1 1 1v2a3 3 0 0 1-3 3H5a3 3 0 0 1-3-3v-2a1 1 0 0 1 1-1h1V7a3 3 0 0 1 3-3h10a3 3 0 0 1 3 3v7ZM6.293 6.293A1 1 0 0 0 6 7v7h.26c.084-.169.183-.328.286-.472.307-.43.734-.85 1.248-1.217a6.974 6.974 0 0 1 2.245-1.052C9.42 10.777 9 10.024 9 9a3 3 0 1 1 6 0c0 1.024-.42 1.777-1.039 2.26a6.973 6.973 0 0 1 2.245 1.051c.514.367.941.787 1.248 1.217.104.144.202.303.287.472H18V7a1 1 0 0 0-1-1H7a1 1 0 0 0-.707.293ZM15.127 14a4.217 4.217 0 0 0-.083-.061C14.324 13.425 13.276 13 12 13s-2.325.425-3.044.939L8.873 14h6.254ZM20 16v1a1 1 0 0 1-1 1H5a1 1 0 0 1-1-1v-1h16Zm-7-7a1 1 0 1 1-2 0 1 1 0 0 1 2 0Z" fill="currentColor"></path>
  </symbol>
  <symbol xmlns="http://www.w3.org/2000/svg" viewBox="0 0 24 24" id="level">
    <path d="M21 18h-2v-3a1 1 0 0 0-1-1h-5v-2.71l1.13.59a1 1 0 0 0 1.45-1.05l-.4-2.37 1.72-1.69a1 1 0 0 0 .26-1 1 1 0 0 0-.81-.68L14 4.72l-1.1-2.16a1 1 0 0 0-1.8 0L10 4.72l-2.39.35a1 1 0 0 0-.81.68 1 1 0 0 0 .26 1l1.76 1.71-.4 2.37a1 1 0 0 0 1.45 1.05l1.13-.59V14H6a1 1 0 0 0-1 1v3H3a1 1 0 0 0-1 1v2a1 1 0 1 0 2 0v-1h4v1a1 1 0 1 0 2 0v-2a1 1 0 0 0-1-1H7v-2h10v2h-2a1 1 0 0 0-1 1v2a1 1 0 0 0 2 0v-1h4v1a1 1 0 0 0 2 0v-2a1 1 0 0 0-1-1Zm-9-9.37a1 1 0 0 0-.47.12l-.8.42.15-.9a1 1 0 0 0-.29-.88l-.65-.64.9-.13a1 1 0 0 0 .76-.54l.4-.82.4.82a1 1 0 0 0 .76.54l.9.13-.65.64a1 1 0 0 0-.29.88l.15.9-.8-.42a1 1 0 0 0-.47-.12Z" fill="currentColor"></path>
  </symbol>
  <symbol xmlns="http://www.w3.org/2000/svg" viewBox="0 0 24 24" id="profile">
    <path d="M12 2a10 10 0 0 0-7.35 16.76 10.001 10.001 0 0 0 14.7 0A9.999 9.999 0 0 0 12 2Zm0 18a8 8 0 0 1-5.55-2.25 6 6 0 0 1 11.1 0A8 8 0 0 1 12 20Zm-2-10a2 2 0 1 1 4 0 2 2 0 0 1-4 0Zm8.91 6A8 8 0 0 0 15 12.62a4 4 0 1 0-6 0A8 8 0 0 0 5.09 16 7.92 7.92 0 0 1 4 12a8 8 0 1 1 16 0 7.92 7.92 0 0 1-1.09 4Z" fill="currentColor"></path>
  </symbol>
  <symbol xmlns="http://www.w3.org/2000/svg" viewBox="0 0 24 24" id="retake">
    <path d="M19.91 15.51h-4.53a1 1 0 0 0 0 2h2.4A8 8 0 0 1 4 12a1 1 0 1 0-2 0 10 10 0 0 0 16.88 7.23V21a1 1 0 0 0 2 0v-4.5a1 1 0 0 0-.97-.99ZM12 2a10 10 0 0 0-6.88 2.77V3a1 1 0 0 0-2 0v4.5a1 1 0 0 0 1 1h4.5a1 1 0 0 0 0-2h-2.4A8 8 0 0 1 20 12a1 1 0 0 0 2 0A10 10 0 0 0 12 2Z" fill="currentColor"></path>
  </symbol>
  <symbol xmlns="http://www.w3.org/2000/svg" viewBox="0 0 24 24" id="sandclock">
    <path d="M19 21h-1v-1.667a4.998 4.998 0 0 0-.3-1.678.958.958 0 0 0-.035-.084A4.976 4.976 0 0 0 17 16.334l-1.4-1.867a3.02 3.02 0 0 1-.6-1.801v-1.01a3.021 3.021 0 0 1 .878-2.12l.658-.658a4.946 4.946 0 0 0 1.396-2.838c0-.014.008-.026.008-.04l-.003-.014c.035-.213.056-.428.063-.643V3h1a1 1 0 1 0 0-2H5a1 1 0 0 0 0 2h1v2.343c.007.215.028.43.063.643L6.06 6c0 .014.008.026.008.04a4.946 4.946 0 0 0 1.396 2.838l.658.657A3.02 3.02 0 0 1 9 11.656v1.01a3.022 3.022 0 0 1-.6 1.8L7 16.335a4.983 4.983 0 0 0-.665 1.237.968.968 0 0 0-.035.084 5.003 5.003 0 0 0-.3 1.678V21H5a1 1 0 0 0 0 2h14a1 1 0 0 0 0-2ZM8 5V3h8v2H8Zm.878 2.464A2.97 2.97 0 0 1 8.502 7h6.996a2.97 2.97 0 0 1-.376.464l-.658.657A4.96 4.96 0 0 0 13.043 11h-2.085a4.96 4.96 0 0 0-1.422-2.879l-.658-.657Zm1.123 8.202c.578-.775.921-1.7.988-2.666h2.022c.067.965.41 1.89.989 2.666L15 17H9l1-1.334ZM16 21H8v-1.667c.003-.111.012-.223.027-.333h7.946c.015.11.024.222.027.333V21Z" fill="currentColor"></path>
  </symbol>
  <symbol xmlns="http://www.w3.org/2000/svg" viewBox="0 0 24 24" id="test">
    <path d="M20 8.94a1.307 1.307 0 0 0-.06-.27v-.09a1.07 1.07 0 0 0-.19-.28l-6-6a1.071 1.071 0 0 0-.28-.19.32.32 0 0 0-.09 0 .88.88 0 0 0-.33-.11H7a3 3 0 0 0-3 3v14a3 3 0 0 0 3 3h10a3 3 0 0 0 3-3V8.94Zm-6-3.53L16.59 8H15a1 1 0 0 1-1-1V5.41ZM18 19a1 1 0 0 1-1 1H7a1 1 0 0 1-1-1V5a1 1 0 0 1 1-1h5v3a3 3 0 0 0 3 3h3v9Zm-3.71-6.71L11 15.59l-1.29-1.3a1.004 1.004 0 1 0-1.42 1.42l2 2a1.002 1.002 0 0 0 1.42 0l4-4a1.004 1.004 0 1 0-1.42-1.42Z" fill="currentColor"></path>
  </symbol>
  <symbol xmlns="http://www.w3.org/2000/svg" viewBox="0 0 24 24" id="video">
    <path d="M21.53 7.15a1 1 0 0 0-1 0L17 8.89A3 3 0 0 0 14 6H5a3 3 0 0 0-3 3v6a3 3 0 0 0 3 3h9a3 3 0 0 0 3-2.89l3.56 1.78A1 1 0 0 0 21 17a1 1 0 0 0 .875-.514A1 1 0 0 0 22 16V8a1 1 0 0 0-.47-.85ZM15 15a1 1 0 0 1-1 1H5a1 1 0 0 1-1-1V9a1 1 0 0 1 1-1h9a1 1 0 0 1 1 1v6Zm5-.62-3-1.5v-1.76l3-1.5v4.76Z" fill="currentColor"></path>
  </symbol>
  <symbol fill="none" xmlns="http://www.w3.org/2000/svg" viewBox="0 0 24 24" id="video-controls__fullscreen">
    <path d="M8 15H3C2.4 15 2 15.4 2 16C2 16.6 2.4 17 3 17H7V21C7 21.6 7.4 22 8 22C8.6 22 9 21.6 9 21V16C9 15.4 8.6 15 8 15ZM8 2C7.4 2 7 2.4 7 3V7H3C2.4 7 2 7.4 2 8C2 8.6 2.4 9 3 9H8C8.6 9 9 8.6 9 8V3C9 2.4 8.6 2 8 2ZM16 9H21C21.6 9 22 8.6 22 8C22 7.4 21.6 7 21 7H17V3C17 2.4 16.6 2 16 2C15.4 2 15 2.4 15 3V8C15 8.6 15.4 9 16 9ZM21 15H16C15.4 15 15 15.4 15 16V21C15 21.6 15.4 22 16 22C16.6 22 17 21.6 17 21V17H21C21.6 17 22 16.6 22 16C22 15.4 21.6 15 21 15Z" fill="currentColor"></path>
  </symbol>
  <symbol fill="none" xmlns="http://www.w3.org/2000/svg" viewBox="0 0 24 24" id="video-controls__sound">
    <path d="M12.43 4.10003C12.2676 4.02977 12.0895 4.00386 11.9138 4.02495C11.7381 4.04603 11.5712 4.11335 11.43 4.22003L6.65 8.00003H3C2.73478 8.00003 2.48043 8.10539 2.29289 8.29293C2.10536 8.48046 2 8.73482 2 9.00003V15C2 15.2652 2.10536 15.5196 2.29289 15.7071C2.48043 15.8947 2.73478 16 3 16H6.65L11.38 19.78C11.5559 19.9212 11.7744 19.9987 12 20C12.1494 20.0025 12.297 19.9682 12.43 19.9C12.6002 19.819 12.744 19.6915 12.8448 19.5323C12.9457 19.373 12.9995 19.1885 13 19V5.00003C12.9995 4.81155 12.9457 4.62705 12.8448 4.46781C12.744 4.30857 12.6002 4.18108 12.43 4.10003V4.10003ZM11 16.92L7.62 14.22C7.44406 14.0789 7.22556 14.0013 7 14H4V10H7C7.22556 9.99872 7.44406 9.92119 7.62 9.78003L11 7.08003V16.92ZM15.14 4.09003C15.0087 4.07165 14.875 4.07931 14.7467 4.11258C14.6183 4.14585 14.4977 4.20407 14.3919 4.28393C14.286 4.36379 14.1969 4.46372 14.1297 4.57801C14.0625 4.6923 14.0184 4.81871 14 4.95003C13.9816 5.08135 13.9893 5.21501 14.0225 5.34337C14.0558 5.47173 14.114 5.59229 14.1939 5.69814C14.3552 5.91194 14.5948 6.0529 14.86 6.09003C16.2762 6.30828 17.5676 7.02616 18.5004 8.11382C19.4333 9.20148 19.9462 10.5871 19.9462 12.02C19.9462 13.453 19.4333 14.8386 18.5004 15.9262C17.5676 17.0139 16.2762 17.7318 14.86 17.95C14.5948 17.9686 14.3478 18.0918 14.1734 18.2924C13.999 18.4931 13.9114 18.7548 13.93 19.02C13.9486 19.2852 14.0717 19.5322 14.2724 19.7066C14.4731 19.881 14.7348 19.9686 15 19.95H15.14C17.0328 19.6637 18.7602 18.7081 20.0086 17.2567C21.2569 15.8053 21.9434 13.9544 21.9434 12.04C21.9434 10.1257 21.2569 8.27475 20.0086 6.82337C18.7602 5.372 17.0328 4.41638 15.14 4.13003V4.09003ZM14.68 13.87C14.4148 13.9125 14.1773 14.0585 14.0198 14.2761C13.8622 14.4936 13.7976 14.7648 13.84 15.03C13.8824 15.2952 14.0285 15.5327 14.246 15.6903C14.4636 15.8478 14.7348 15.9125 15 15.87C15.1085 15.8688 15.2163 15.852 15.32 15.82C16.099 15.5438 16.7733 15.033 17.2502 14.3579C17.7271 13.6828 17.9832 12.8766 17.9832 12.05C17.9832 11.2235 17.7271 10.4172 17.2502 9.74214C16.7733 9.06705 16.099 8.55627 15.32 8.28003C15.068 8.19516 14.7927 8.21386 14.5545 8.33201C14.3164 8.45015 14.1349 8.65808 14.05 8.91003C13.9651 9.16199 13.9838 9.43734 14.102 9.67551C14.2201 9.91368 14.428 10.0952 14.68 10.18C15.0595 10.324 15.3862 10.5799 15.6167 10.9139C15.8472 11.2479 15.9707 11.6442 15.9707 12.05C15.9707 12.4559 15.8472 12.8521 15.6167 13.1861C15.3862 13.5201 15.0595 13.7761 14.68 13.92V13.87Z" fill="currentColor"></path>
  </symbol>
  <symbol fill="none" xmlns="http://www.w3.org/2000/svg" viewBox="0 0 24 24" id="video-controls__play">
    <path d="M19.2411 8.99888L9.28661 3.45836C8.74796 3.15649 8.13658 2.99835 7.51458 3.00001C6.89257 3.00167 6.2821 3.16306 5.74517 3.4678C5.20824 3.77254 4.76397 4.20976 4.45749 4.73506C4.15102 5.26036 3.99325 5.85502 4.00022 6.45864V17.5797C4.00022 18.4868 4.37153 19.3568 5.03245 19.9982C5.69338 20.6396 6.58979 21 7.52448 21C8.14322 20.999 8.75085 20.8403 9.28661 20.54L19.2411 14.9994C19.776 14.699 20.22 14.2673 20.5288 13.7478C20.8375 13.2282 21 12.6389 21 12.0392C21 11.4394 20.8375 10.8501 20.5288 10.3306C20.22 9.81098 19.776 9.29932 19.2411 8.99888Z" fill="currentColor"></path>
  </symbol>
  <symbol fill="none" xmlns="http://www.w3.org/2000/svg" viewBox="0 0 24 24" id="video-controls__muted">
    <path d="M12.43 4.08221C12.2676 4.01195 12.0895 3.98604 11.9138 4.00712C11.7381 4.02821 11.5712 4.09552 11.43 4.20221L6.65 7.98221H3C2.73478 7.98221 2.48043 8.08757 2.29289 8.2751C2.10536 8.46264 2 8.71699 2 8.98221V14.9822C2 15.2474 2.10536 15.5018 2.29289 15.6893C2.48043 15.8769 2.73478 15.9822 3 15.9822H6.65L11.38 19.7622C11.5559 19.9034 11.7744 19.9809 12 19.9822C12.1494 19.9847 12.297 19.9503 12.43 19.8822C12.6002 19.8012 12.744 19.6737 12.8448 19.5144C12.9457 19.3552 12.9995 19.1707 13 18.9822V4.98221C12.9995 4.79372 12.9457 4.60923 12.8448 4.44999C12.744 4.29075 12.6002 4.16326 12.43 4.08221ZM11 16.9022L7.62 14.2022C7.44406 14.061 7.22556 13.9835 7 13.9822H4V9.98221H7C7.22556 9.9809 7.44406 9.90337 7.62 9.76221L11 7.06221V16.9022Z" fill="currentColor"></path>
    <path d="M18.9391 11.9989L21.803 9.14162C21.9284 9.01621 21.9989 8.84611 21.9989 8.66875C21.9989 8.49139 21.9284 8.32129 21.803 8.19587C21.6776 8.07046 21.5075 8 21.3301 8C21.1528 8 20.9827 8.07046 20.8572 8.19587L18 11.0598L15.1428 8.19587C15.0173 8.07046 14.8472 8 14.6699 8C14.4925 8 14.3224 8.07046 14.197 8.19587C14.0716 8.32129 14.0011 8.49139 14.0011 8.66875C14.0011 8.84611 14.0716 9.01621 14.197 9.14162L17.0609 11.9989L14.197 14.8561C14.1346 14.918 14.085 14.9917 14.0512 15.0728C14.0174 15.154 14 15.2411 14 15.329C14 15.4169 14.0174 15.504 14.0512 15.5851C14.085 15.6663 14.1346 15.7399 14.197 15.8019C14.2589 15.8643 14.3326 15.9138 14.4137 15.9476C14.4949 15.9815 14.582 15.9989 14.6699 15.9989C14.7578 15.9989 14.8449 15.9815 14.926 15.9476C15.0072 15.9138 15.0808 15.8643 15.1428 15.8019L18 12.938L20.8572 15.8019C20.9192 15.8643 20.9928 15.9138 21.074 15.9476C21.1551 15.9815 21.2422 15.9989 21.3301 15.9989C21.418 15.9989 21.5051 15.9815 21.5863 15.9476C21.6674 15.9138 21.7411 15.8643 21.803 15.8019C21.8654 15.7399 21.915 15.6663 21.9488 15.5851C21.9826 15.504 22 15.4169 22 15.329C22 15.2411 21.9826 15.154 21.9488 15.0728C21.915 14.9917 21.8654 14.918 21.803 14.8561L18.9391 11.9989Z" fill="currentColor"></path>
  </symbol>
  <symbol fill="none" xmlns="http://www.w3.org/2000/svg" viewBox="0 0 24 24" id="duration">
    <path d="M11 2C9.02219 2 7.08879 2.58649 5.4443 3.6853C3.79981 4.78412 2.51809 6.3459 1.76121 8.17317C1.00433 10.0004 0.806299 12.0111 1.19215 13.9509C1.578 15.8907 2.53041 17.6725 3.92894 19.0711C5.32746 20.4696 7.10929 21.422 9.0491 21.8079C10.9889 22.1937 12.9996 21.9957 14.8268 21.2388C16.6541 20.4819 18.2159 19.2002 19.3147 17.5557C20.4135 15.9112 21 13.9778 21 12C21 10.6868 20.7413 9.38642 20.2388 8.17317C19.7363 6.95991 18.9997 5.85752 18.0711 4.92893C17.1425 4.00035 16.0401 3.26375 14.8268 2.7612C13.6136 2.25866 12.3132 2 11 2ZM11 20C9.41775 20 7.87104 19.5308 6.55544 18.6518C5.23985 17.7727 4.21447 16.5233 3.60897 15.0615C3.00347 13.5997 2.84504 11.9911 3.15372 10.4393C3.4624 8.88743 4.22433 7.46197 5.34315 6.34315C6.46197 5.22433 7.88743 4.4624 9.43928 4.15372C10.9911 3.84504 12.5997 4.00346 14.0615 4.60896C15.5233 5.21447 16.7727 6.23984 17.6518 7.55544C18.5308 8.87103 19 10.4177 19 12C19 14.1217 18.1572 16.1566 16.6569 17.6569C15.1566 19.1571 13.1217 20 11 20ZM11 6C10.7348 6 10.4804 6.10536 10.2929 6.29289C10.1054 6.48043 10 6.73478 10 7V11.42L7.9 12.63C7.70736 12.7392 7.5564 12.9092 7.47078 13.1134C7.38517 13.3176 7.36975 13.5444 7.42695 13.7583C7.48414 13.9722 7.61072 14.1611 7.78682 14.2953C7.96292 14.4296 8.17859 14.5015 8.4 14.5C8.57518 14.5012 8.7476 14.4564 8.9 14.37L11.5 12.87L11.59 12.78L11.75 12.65C11.7891 12.6005 11.8226 12.5468 11.85 12.49C11.8826 12.4363 11.9094 12.3793 11.93 12.32C11.9572 12.2564 11.9741 12.1889 11.98 12.12L12 12V7C12 6.73478 11.8946 6.48043 11.7071 6.29289C11.5196 6.10536 11.2652 6 11 6Z" fill="currentColor"/>
  </symbol>
  <symbol fill="none" xmlns="http://www.w3.org/2000/svg" viewBox="0 0 24 24" id="lessons">
    <path d="M21.1701 2.06C20.4533 1.93653 19.7274 1.87298 19.0001 1.87C16.5184 1.86796 14.0886 2.57957 12.0001 3.92C9.90623 2.59717 7.47674 1.90303 5.00008 1.92C4.27273 1.92298 3.54689 1.98653 2.83008 2.11C2.59529 2.15048 2.38267 2.27346 2.2305 2.45679C2.07833 2.64013 1.99662 2.87177 2.00008 3.11V15.11C1.99794 15.2569 2.02821 15.4025 2.08873 15.5364C2.14926 15.6703 2.23855 15.7893 2.35026 15.8847C2.46197 15.9802 2.59334 16.0499 2.73504 16.0888C2.87674 16.1278 3.02528 16.135 3.17008 16.11C4.6031 15.8619 6.07129 15.9031 7.48815 16.2311C8.90501 16.5591 10.2419 17.1674 11.4201 18.02L11.5401 18.09H11.6501C11.761 18.1362 11.8799 18.16 12.0001 18.16C12.1202 18.16 12.2392 18.1362 12.3501 18.09H12.4601L12.5801 18.02C13.75 17.1483 15.0831 16.5203 16.5002 16.1734C17.9174 15.8264 19.3897 15.7674 20.8301 16C20.9749 16.025 21.1234 16.0178 21.2651 15.9788C21.4068 15.9399 21.5382 15.8702 21.6499 15.7747C21.7616 15.6793 21.8509 15.5603 21.9114 15.4264C21.972 15.2925 22.0022 15.1469 22.0001 15V3C21.9897 2.77215 21.9017 2.55471 21.7507 2.38374C21.5998 2.21276 21.3949 2.09854 21.1701 2.06ZM11.0001 15.35C9.14997 14.3767 7.0906 13.8687 5.00008 13.87C4.67008 13.87 4.34008 13.87 4.00008 13.87V3.87C4.33314 3.8508 4.66703 3.8508 5.00008 3.87C7.13347 3.86764 9.2203 4.49369 11.0001 5.67V15.35ZM20.0001 13.91C19.6601 13.91 19.3301 13.91 19.0001 13.91C16.9096 13.9087 14.8502 14.4167 13.0001 15.39V5.67C14.7799 4.49369 16.8667 3.86764 19.0001 3.87C19.3331 3.8508 19.667 3.8508 20.0001 3.87V13.91ZM21.1701 18.06C20.4533 17.9365 19.7274 17.873 19.0001 17.87C16.5184 17.868 14.0886 18.5796 12.0001 19.92C9.9116 18.5796 7.48172 17.868 5.00008 17.87C4.27273 17.873 3.54689 17.9365 2.83008 18.06C2.69991 18.0807 2.57511 18.1268 2.46285 18.1959C2.35059 18.265 2.25309 18.3555 2.17595 18.4624C2.09882 18.5693 2.04357 18.6903 2.01339 18.8186C1.98321 18.9469 1.97869 19.0799 2.00008 19.21C2.0509 19.4697 2.20257 19.6986 2.42188 19.8467C2.64118 19.9948 2.91022 20.0499 3.17008 20C4.6031 19.7519 6.07129 19.7931 7.48815 20.1211C8.90501 20.4491 10.2419 21.0574 11.4201 21.91C11.5894 22.0306 11.7922 22.0954 12.0001 22.0954C12.208 22.0954 12.4107 22.0306 12.5801 21.91C13.7583 21.0574 15.0952 20.4491 16.512 20.1211C17.9289 19.7931 19.3971 19.7519 20.8301 20C21.0899 20.0499 21.359 19.9948 21.5783 19.8467C21.7976 19.6986 21.9493 19.4697 22.0001 19.21C22.0215 19.0799 22.017 18.9469 21.9868 18.8186C21.9566 18.6903 21.9014 18.5693 21.8242 18.4624C21.7471 18.3555 21.6496 18.265 21.5373 18.1959C21.4251 18.1268 21.3003 18.0807 21.1701 18.06Z" fill="currentColor"/>
  </symbol>
  <symbol fill="none" xmlns="http://www.w3.org/2000/svg" viewBox="0 0 24 24" id="logout">
    <path d="M4 12C4 12.2652 4.10536 12.5196 4.29289 12.7071C4.48043 12.8946 4.73478 13 5 13H12.59L10.29 15.29C10.1963 15.383 10.1219 15.4936 10.0711 15.6154C10.0203 15.7373 9.9942 15.868 9.9942 16C9.9942 16.132 10.0203 16.2627 10.0711 16.3846C10.1219 16.5064 10.1963 16.617 10.29 16.71C10.383 16.8037 10.4936 16.8781 10.6154 16.9289C10.7373 16.9797 10.868 17.0058 11 17.0058C11.132 17.0058 11.2627 16.9797 11.3846 16.9289C11.5064 16.8781 11.617 16.8037 11.71 16.71L15.71 12.71C15.801 12.6149 15.8724 12.5028 15.92 12.38C16.02 12.1365 16.02 11.8635 15.92 11.62C15.8724 11.4972 15.801 11.3851 15.71 11.29L11.71 7.29C11.6168 7.19676 11.5061 7.1228 11.3842 7.07234C11.2624 7.02188 11.1319 6.99591 11 6.99591C10.8681 6.99591 10.7376 7.02188 10.6158 7.07234C10.4939 7.1228 10.3832 7.19676 10.29 7.29C10.1968 7.38324 10.1228 7.49393 10.0723 7.61575C10.0219 7.73757 9.99591 7.86814 9.99591 8C9.99591 8.13186 10.0219 8.26243 10.0723 8.38425C10.1228 8.50607 10.1968 8.61676 10.29 8.71L12.59 11H5C4.73478 11 4.48043 11.1054 4.29289 11.2929C4.10536 11.4804 4 11.7348 4 12ZM17 2H7C6.20435 2 5.44129 2.31607 4.87868 2.87868C4.31607 3.44129 4 4.20435 4 5V8C4 8.26522 4.10536 8.51957 4.29289 8.70711C4.48043 8.89464 4.73478 9 5 9C5.26522 9 5.51957 8.89464 5.70711 8.70711C5.89464 8.51957 6 8.26522 6 8V5C6 4.73478 6.10536 4.48043 6.29289 4.29289C6.48043 4.10536 6.73478 4 7 4H17C17.2652 4 17.5196 4.10536 17.7071 4.29289C17.8946 4.48043 18 4.73478 18 5V19C18 19.2652 17.8946 19.5196 17.7071 19.7071C17.5196 19.8946 17.2652 20 17 20H7C6.73478 20 6.48043 19.8946 6.29289 19.7071C6.10536 19.5196 6 19.2652 6 19V16C6 15.7348 5.89464 15.4804 5.70711 15.2929C5.51957 15.1054 5.26522 15 5 15C4.73478 15 4.48043 15.1054 4.29289 15.2929C4.10536 15.4804 4 15.7348 4 16V19C4 19.7956 4.31607 20.5587 4.87868 21.1213C5.44129 21.6839 6.20435 22 7 22H17C17.7956 22 18.5587 21.6839 19.1213 21.1213C19.6839 20.5587 20 19.7956 20 19V5C20 4.20435 19.6839 3.44129 19.1213 2.87868C18.5587 2.31607 17.7956 2 17 2Z" fill="currentColor"/>
  </symbol>
  <symbol fill="none" xmlns="http://www.w3.org/2000/svg" viewBox="0 0 24 24" id="rank">
    <path d="M21 18H19V15C19 14.7348 18.8946 14.4805 18.7071 14.2929C18.5196 14.1054 18.2652 14 18 14H13V11.29L14.13 11.88C14.2948 11.9662 14.4804 12.0048 14.6658 11.9913C14.8513 11.9779 15.0294 11.913 15.18 11.8039C15.3307 11.6948 15.4479 11.5459 15.5185 11.3738C15.5892 11.2018 15.6105 11.0135 15.58 10.83L15.18 8.46002L16.9 6.77002C17.0303 6.6428 17.1233 6.48243 17.1692 6.3062C17.215 6.12997 17.2118 5.94458 17.16 5.77002C17.102 5.5923 16.9954 5.43437 16.8522 5.31418C16.7091 5.19398 16.5351 5.11633 16.35 5.09002L14 4.72002L12.9 2.56002C12.8181 2.39095 12.6903 2.24836 12.5311 2.14859C12.3719 2.04883 12.1879 1.99591 12 1.99591C11.8121 1.99591 11.6281 2.04883 11.4689 2.14859C11.3097 2.24836 11.1819 2.39095 11.1 2.56002L10 4.72002L7.61 5.07002C7.42492 5.09633 7.25092 5.17398 7.10775 5.29418C6.96458 5.41437 6.85796 5.5723 6.8 5.75002C6.74819 5.92458 6.74502 6.10997 6.79084 6.2862C6.83666 6.46243 6.92973 6.6228 7.06 6.75002L8.82 8.46002L8.42 10.83C8.38952 11.0135 8.4108 11.2018 8.48145 11.3738C8.5521 11.5459 8.66933 11.6948 8.81996 11.8039C8.9706 11.913 9.14866 11.9779 9.33415 11.9913C9.51964 12.0048 9.70521 11.9662 9.87 11.88L11 11.29V14H6C5.73478 14 5.48043 14.1054 5.29289 14.2929C5.10536 14.4805 5 14.7348 5 15V18H3C2.73478 18 2.48043 18.1054 2.29289 18.2929C2.10536 18.4804 2 18.7348 2 19V21C2 21.2652 2.10536 21.5196 2.29289 21.7071C2.48043 21.8947 2.73478 22 3 22C3.26522 22 3.51957 21.8947 3.70711 21.7071C3.89464 21.5196 4 21.2652 4 21V20H8V21C8 21.2652 8.10536 21.5196 8.29289 21.7071C8.48043 21.8947 8.73478 22 9 22C9.26522 22 9.51957 21.8947 9.70711 21.7071C9.89464 21.5196 10 21.2652 10 21V19C10 18.7348 9.89464 18.4804 9.70711 18.2929C9.51957 18.1054 9.26522 18 9 18H7V16H17V18H15C14.7348 18 14.4804 18.1054 14.2929 18.2929C14.1054 18.4804 14 18.7348 14 19V21C14 21.2652 14.1054 21.5196 14.2929 21.7071C14.4804 21.8947 14.7348 22 15 22C15.2652 22 15.5196 21.8947 15.7071 21.7071C15.8946 21.5196 16 21.2652 16 21V20H20V21C20 21.2652 20.1054 21.5196 20.2929 21.7071C20.4804 21.8947 20.7348 22 21 22C21.2652 22 21.5196 21.8947 21.7071 21.7071C21.8946 21.5196 22 21.2652 22 21V19C22 18.7348 21.8946 18.4804 21.7071 18.2929C21.5196 18.1054 21.2652 18 21 18ZM12 8.63002C11.8359 8.63084 11.6744 8.67205 11.53 8.75002L10.73 9.17002L10.88 8.27002C10.9062 8.11083 10.8936 7.94764 10.8431 7.79441C10.7926 7.64117 10.7057 7.50243 10.59 7.39002L9.94 6.75002L10.84 6.62002C11.001 6.59851 11.1544 6.5381 11.2868 6.44401C11.4192 6.34992 11.5267 6.22499 11.6 6.08002L12 5.26002L12.4 6.08002C12.4733 6.22499 12.5808 6.34992 12.7132 6.44401C12.8456 6.5381 12.999 6.59851 13.16 6.62002L14.06 6.75002L13.41 7.39002C13.2943 7.50243 13.2074 7.64117 13.1569 7.79441C13.1064 7.94764 13.0938 8.11083 13.12 8.27002L13.27 9.17002L12.47 8.75002C12.3256 8.67205 12.1641 8.63084 12 8.63002Z" fill="currentColor"/>
  </symbol>
  <symbol fill="none" xmlns="http://www.w3.org/2000/svg" viewBox="0 0 24 24" id="role">
    <path d="M21.3798 5.75998C21.3457 5.63229 21.2866 5.51263 21.2059 5.40792C21.1252 5.30322 21.0246 5.21555 20.9098 5.14998L15.7098 2.14998C15.5963 2.08345 15.4708 2.03998 15.3404 2.02206C15.21 2.00415 15.0774 2.01215 14.9501 2.04559C14.8228 2.07903 14.7034 2.13727 14.5987 2.21696C14.494 2.29665 14.406 2.39623 14.3398 2.50998L11.9998 6.56998L9.65985 2.50998C9.59369 2.39623 9.50572 2.29665 9.401 2.21696C9.29628 2.13727 9.17685 2.07903 9.04958 2.04559C8.92231 2.01215 8.78968 2.00415 8.65931 2.02206C8.52894 2.03998 8.40339 2.08345 8.28985 2.14998L3.08985 5.14998C2.97508 5.21555 2.87445 5.30322 2.79378 5.40792C2.7131 5.51263 2.65399 5.63229 2.61985 5.75998C2.55367 6.01343 2.58957 6.28273 2.71985 6.50998L6.71985 13.34C6.2736 14.1575 6.02689 15.069 5.99985 16C5.99747 16.9083 6.20133 17.8052 6.59607 18.6233C6.9908 19.4413 7.56611 20.159 8.27861 20.7223C8.9911 21.2857 9.8222 21.6799 10.7092 21.8753C11.5962 22.0706 12.5161 22.0621 13.3993 21.8502C14.2825 21.6384 15.1061 21.2287 15.808 20.6523C16.5099 20.0758 17.0718 19.3475 17.4512 18.5222C17.8306 17.697 18.0178 16.7964 17.9985 15.8883C17.9792 14.9802 17.754 14.0884 17.3398 13.28L21.2398 6.51998C21.3124 6.40892 21.3622 6.28453 21.3862 6.15405C21.4103 6.02357 21.4081 5.88961 21.3798 5.75998ZM4.99985 6.37998L8.45985 4.37998L11.6798 9.99998C10.3073 10.0848 9.00664 10.6432 7.99985 11.58L4.99985 6.37998ZM11.9998 20C10.939 20 9.92157 19.5786 9.17142 18.8284C8.42128 18.0783 7.99985 17.0608 7.99985 16C7.99985 14.9391 8.42128 13.9217 9.17142 13.1716C9.92157 12.4214 10.939 12 11.9998 12C13.0607 12 14.0781 12.4214 14.8283 13.1716C15.5784 13.9217 15.9998 14.9391 15.9998 16C15.9998 17.0608 15.5784 18.0783 14.8283 18.8284C14.0781 19.5786 13.0607 20 11.9998 20ZM15.9998 11.55C15.4569 11.0541 14.8261 10.6641 14.1398 10.4L13.1598 8.56998L15.5798 4.37998L19.0399 6.37998L15.9998 11.55Z" fill="currentColor"/>
  </symbol>
</svg>

