<!-- SVG Sprite -->
<svg width="0" height="0" class="hidden">
  <symbol xmlns="http://www.w3.org/2000/svg" viewBox="0 0 24 24" id="check">
    <path d="M18.7099 7.21C18.617 7.11627 18.5064 7.04188 18.3845 6.99111C18.2627 6.94034 18.132 6.9142 17.9999 6.9142C17.8679 6.9142 17.7372 6.94034 17.6154 6.99111C17.4935 7.04188 17.3829 7.11627 17.29 7.21L9.83995 14.67L6.70995 11.53C6.61343 11.4368 6.49949 11.3634 6.37463 11.3142C6.24978 11.265 6.11645 11.2409 5.98227 11.2432C5.84809 11.2456 5.71568 11.2743 5.5926 11.3278C5.46953 11.3813 5.35819 11.4585 5.26495 11.555C5.17171 11.6515 5.0984 11.7655 5.04919 11.8903C4.99999 12.0152 4.97586 12.1485 4.97818 12.2827C4.9805 12.4169 5.00923 12.5493 5.06272 12.6723C5.11622 12.7954 5.19343 12.9068 5.28995 13L9.12995 16.84C9.22291 16.9337 9.33351 17.0081 9.45537 17.0589C9.57723 17.1097 9.70794 17.1358 9.83995 17.1358C9.97196 17.1358 10.1027 17.1097 10.2245 17.0589C10.3464 17.0081 10.457 16.9337 10.55 16.84L18.7099 8.68C18.8115 8.58636 18.8925 8.4727 18.9479 8.3462C19.0033 8.21971 19.0319 8.0831 19.0319 7.945C19.0319 7.8069 19.0033 7.67029 18.9479 7.54379C18.8925 7.41729 18.8115 7.30364 18.7099 7.21V7.21Z" fill="currentColor"/>
  </symbol>
  <symbol xmlns="http://www.w3.org/2000/svg" viewBox="0 0 24 24" id="alert">
    <path d="M12 16a1 1 0 1 0 0 2 1 1 0 0 0 0-2Zm10.67 1.47-8.05-14a3 3 0 0 0-5.24 0l-8 14A3 3 0 0 0 3.94 22h16.12a3 3 0 0 0 2.61-4.53Zm-1.73 2a1.001 1.001 0 0 1-.88.51H3.94a1 1 0 0 1-.88-.51 1 1 0 0 1 0-1l8-14a1 1 0 0 1 1.78 0l8.05 14a1 1 0 0 1 .05 1.02v-.02ZM12 8a1 1 0 0 0-1 1v4a1 1 0 1 0 2 0V9a1 1 0 0 0-1-1Z" fill="currentColor"></path>
  </symbol>
  <symbol xmlns="http://www.w3.org/2000/svg" viewBox="0 0 24 24" id="arrow-back">
    <path fill-rule="evenodd" clip-rule="evenodd" d="m10.657 19.071-6.364-6.364a1 1 0 0 1 0-1.414l6.364-6.364a1 1 0 1 1 1.414 1.414L7.414 11H19a1 1 0 1 1 0 2H7.414l4.657 4.657a1 1 0 0 1-1.414 1.414Z" fill="currentColor"></path>
  </symbol>
  <symbol xmlns="http://www.w3.org/2000/svg" viewBox="0 0 24 24" id="arrow-forward">
    <path fill-rule="evenodd" clip-rule="evenodd" d="m13.343 19.071 6.364-6.364a1 1 0 0 0 0-1.414L13.343 4.93a1 1 0 1 0-1.414 1.414L16.586 11H5a1 1 0 1 0 0 2h11.586l-4.657 4.657a1 1 0 0 0 1.414 1.414Z" fill="currentColor"></path>
  </symbol>
  <symbol xmlns="http://www.w3.org/2000/svg" viewBox="0 0 24 24" id="book">
    <path d="M21.17 2.06A13.1 13.1 0 0 0 19 1.87a12.94 12.94 0 0 0-7 2.05 12.94 12.94 0 0 0-7-2 13.1 13.1 0 0 0-2.17.19 1 1 0 0 0-.83 1v12a1 1 0 0 0 1.17 1 10.9 10.9 0 0 1 8.25 1.91l.12.07h.11a.91.91 0 0 0 .7 0h.11l.12-.07A10.9 10.9 0 0 1 20.83 16 1 1 0 0 0 22 15V3a1 1 0 0 0-.83-.94ZM11 15.35a12.87 12.87 0 0 0-6-1.48H4v-10c.333-.02.667-.02 1 0a10.86 10.86 0 0 1 6 1.8v9.68Zm9-1.44h-1a12.87 12.87 0 0 0-6 1.48V5.67a10.86 10.86 0 0 1 6-1.8c.333-.02.667-.02 1 0v10.04Zm1.17 4.15a13.11 13.11 0 0 0-2.17-.19 12.94 12.94 0 0 0-7 2.05 12.94 12.94 0 0 0-7-2.05 13.11 13.11 0 0 0-2.17.19A1.002 1.002 0 0 0 2 19.21a1 1 0 0 0 1.17.79 10.9 10.9 0 0 1 8.25 1.91 1 1 0 0 0 1.16 0A10.9 10.9 0 0 1 20.83 20a1 1 0 0 0 1.17-.79 1 1 0 0 0-.83-1.15Z" fill="currentColor"></path>
  </symbol>
  <symbol xmlns="http://www.w3.org/2000/svg" viewBox="0 0 24 24" id="chevrone-down">
    <path d="M17 9.17a1 1 0 0 0-1.41 0L12 12.71 8.46 9.17a1 1 0 1 0-1.41 1.42l4.24 4.24a1.002 1.002 0 0 0 1.42 0L17 10.59a1.002 1.002 0 0 0 0-1.42Z" fill="currentColor"></path>
  </symbol>
  <symbol xmlns="http://www.w3.org/2000/svg" viewBox="0 0 24 24" id="calendar">
    <path d="M19 4h-2V3a1 1 0 0 0-2 0v1H9V3a1 1 0 0 0-2 0v1H5a3 3 0 0 0-3 3v12a3 3 0 0 0 3 3h14a3 3 0 0 0 3-3V7a3 3 0 0 0-3-3Zm1 15a1 1 0 0 1-1 1H5a1 1 0 0 1-1-1v-7h16v7Zm0-9H4V7a1 1 0 0 1 1-1h2v1a1 1 0 0 0 2 0V6h6v1a1 1 0 0 0 2 0V6h2a1 1 0 0 1 1 1v3Z" fill="currentColor"></path>
  </symbol>
  <symbol xmlns="http://www.w3.org/2000/svg" viewBox="0 0 24 24" id="chevrone-right">
    <path d="M9.29 16.978a1 1 0 0 1 0-1.41l3.54-3.59-3.54-3.54a1 1 0 1 1 1.42-1.41l4.24 4.24a1.001 1.001 0 0 1 0 1.42l-4.24 4.29a.999.999 0 0 1-1.42 0Z" fill="currentColor"></path>
  </symbol>
  <symbol xmlns="http://www.w3.org/2000/svg" viewBox="0 0 24 24" id="chevrone-up">
    <path d="M17 14.835a1 1 0 0 1-1.41 0L12 11.295l-3.54 3.54a1 1 0 1 1-1.41-1.42l4.24-4.24a1.001 1.001 0 0 1 1.42 0l4.29 4.24a1 1 0 0 1 0 1.42Z" fill="currentColor"></path>
  </symbol>
  <symbol xmlns="http://www.w3.org/2000/svg" viewBox="0 0 24 24" id="clock">
    <path d="M11 2a10 10 0 1 0 0 20 10 10 0 0 0 0-20Zm0 18a8 8 0 1 1 0-16 8 8 0 0 1 0 16Zm0-14a1 1 0 0 0-1 1v4.42l-2.1 1.21a1 1 0 0 0 .5 1.87 1 1 0 0 0 .5-.13l2.6-1.5.09-.09.16-.13a.863.863 0 0 0 .1-.16.891.891 0 0 0 .08-.17.65.65 0 0 0 .05-.2L12 12V7a1 1 0 0 0-1-1Z" fill="currentColor"></path>
  </symbol>
  <symbol xmlns="http://www.w3.org/2000/svg" viewBox="0 0 24 24" id="close">
    <path d="m13.41 12 4.3-4.29a1.004 1.004 0 1 0-1.42-1.42L12 10.59l-4.29-4.3a1.004 1.004 0 0 0-1.42 1.42l4.3 4.29-4.3 4.29a1 1 0 0 0 0 1.42.998.998 0 0 0 1.42 0l4.29-4.3 4.29 4.3a.998.998 0 0 0 1.42 0 .997.997 0 0 0 .219-1.095.998.998 0 0 0-.22-.325L13.41 12Z" fill="currentColor"></path>
  </symbol>
  <symbol xmlns="http://www.w3.org/2000/svg" viewBox="0 0 24 24" id="completed">
    <path d="M12 2C6.5 2 2 6.5 2 12s4.5 10 10 10 10-4.5 10-10S17.5 2 12 2Zm4.2 8.3-4.8 4.8c-.4.4-1 .4-1.4 0l-2.2-2.2c-.4-.4-.4-1 0-1.4.4-.4 1-.4 1.4 0l1.5 1.5 4.1-4.1c.4-.4 1-.4 1.4 0 .4.4.4 1 0 1.4Z" fill="currentColor"></path>
  </symbol>
  <symbol xmlns="http://www.w3.org/2000/svg" viewBox="0 0 24 24" id="custom-checkbox-round-default">
    <path fill-rule="evenodd" clip-rule="evenodd" d="M12 1a11 11 0 1 0 0 22 11 11 0 0 0 0-22Zm0 20a9 9 0 1 1 0-18 9 9 0 0 1 0 18Z" fill="currentColor"></path>
  </symbol>
  <symbol xmlns="http://www.w3.org/2000/svg" viewBox="0 0 24 24" id="courses">
    <path d="m21.49 10.19-1-.55-9-5h-.11a1.06 1.06 0 0 0-.19-.06h-.37a1.17 1.17 0 0 0-.2.06h-.11l-9 5a1 1 0 0 0 0 1.74L4 12.76v4.74a3 3 0 0 0 3 3h8a3 3 0 0 0 3-3v-4.74l2-1.12v2.86a1 1 0 1 0 2 0v-3.44a1 1 0 0 0-.51-.87ZM16 17.5a1 1 0 0 1-1 1H7a1 1 0 0 1-1-1v-3.63l4.51 2.5.15.06h.09c.083.01.167.01.25 0 .083.01.167.01.25 0h.09a.47.47 0 0 0 .15-.06l4.51-2.5v3.63Zm-5-3.14L4.06 10.5 11 6.64l6.94 3.86L11 14.36Z" fill="currentColor"></path>
  </symbol>
  <symbol xmlns="http://www.w3.org/2000/svg" viewBox="0 0 24 24" id="custom-checkbox-round-selected">
    <path d="M12 13a1 1 0 1 1 0-2 1 1 0 0 1 0 2Z" fill="currentColor"></path>
    <path fill-rule="evenodd" clip-rule="evenodd" d="M12 17a5 5 0 1 1 0-9.999A5 5 0 0 1 12 17Zm-1.667-7.494a3 3 0 1 1 3.334 4.988 3 3 0 0 1-3.334-4.988Z" fill="currentColor"></path>
    <path fill-rule="evenodd" clip-rule="evenodd" d="M12 1a11 11 0 1 0 0 22 11 11 0 0 0 0-22Zm0 20a9 9 0 1 1 0-18 9 9 0 0 1 0 18Z" fill="currentColor"></path>
    <path fill-rule="evenodd" clip-rule="evenodd" d="M12 9a3 3 0 1 0 0 6 3 3 0 0 0 0-6Zm-.556 3.832a1 1 0 1 0 1.111-1.663 1 1 0 0 0-1.11 1.662Z" fill="currentColor"></path>
  </symbol>
  <symbol xmlns="http://www.w3.org/2000/svg" viewBox="0 0 24 24" id="custom-checkbox-square-default">
    <path fill-rule="evenodd" clip-rule="evenodd" d="M18 4H6a2 2 0 0 0-2 2v12a2 2 0 0 0 2 2h12a2 2 0 0 0 2-2V6a2 2 0 0 0-2-2ZM6 2a4 4 0 0 0-4 4v12a4 4 0 0 0 4 4h12a4 4 0 0 0 4-4V6a4 4 0 0 0-4-4H6Z" fill="currentColor"></path>
  </symbol>
  <symbol xmlns="http://www.w3.org/2000/svg" viewBox="0 0 24 24" id="custom-checkbox-square-selected">
    <path fill-rule="evenodd" clip-rule="evenodd" d="M18 4H6a2 2 0 0 0-2 2v12a2 2 0 0 0 2 2h12a2 2 0 0 0 2-2V6a2 2 0 0 0-2-2ZM6 2a4 4 0 0 0-4 4v12a4 4 0 0 0 4 4h12a4 4 0 0 0 4-4V6a4 4 0 0 0-4-4H6Z" fill="currentColor"></path>
    <path d="M10.536 14.969a.998.998 0 0 1-.326-.219l-1.92-1.92a1.004 1.004 0 1 1 1.42-1.42l1.21 1.22 3.37-3.38a1.004 1.004 0 0 1 1.42 1.42l-4.08 4.08a1 1 0 0 1-1.094.219Z" fill="currentColor"></path>
  </symbol>
  <symbol xmlns="http://www.w3.org/2000/svg" viewBox="0 0 24 24" id="document">
    <path d="M20 8.94a1.307 1.307 0 0 0-.06-.27v-.09a1.07 1.07 0 0 0-.19-.28l-6-6a1.071 1.071 0 0 0-.28-.19h-.09L13.06 2H7a3 3 0 0 0-3 3v14a3 3 0 0 0 3 3h10a3 3 0 0 0 3-3V8.94Zm-6-3.53L16.59 8H14V5.41ZM18 19a1 1 0 0 1-1 1H7a1 1 0 0 1-1-1V5a1 1 0 0 1 1-1h5v5a1 1 0 0 0 1 1h5v9Z" fill="currentColor"></path>
  </symbol>
  <symbol xmlns="http://www.w3.org/2000/svg" viewBox="0 0 24 24" id="failed">
    <path d="M12 2C6.5 2 2 6.5 2 12s4.5 10 10 10 10-4.5 10-10S17.5 2 12 2Zm3.7 12.3c.4.4.4 1 0 1.4-.4.4-1 .4-1.4 0L12 13.4l-2.3 2.3c-.4.4-1 .4-1.4 0-.4-.4-.4-1 0-1.4l2.3-2.3-2.3-2.3c-.4-.4-.4-1 0-1.4.4-.4 1-.4 1.4 0l2.3 2.3 2.3-2.3c.4-.4 1-.4 1.4 0 .4.4.4 1 0 1.4L13.4 12l2.3 2.3Z" fill="currentColor"></path>
  </symbol>
  <symbol xmlns="http://www.w3.org/2000/svg" viewBox="0 0 24 24" id="laptop">
    <path fill-rule="evenodd" clip-rule="evenodd" d="M20 14h1a1 1 0 0 1 1 1v2a3 3 0 0 1-3 3H5a3 3 0 0 1-3-3v-2a1 1 0 0 1 1-1h1V7a3 3 0 0 1 3-3h10a3 3 0 0 1 3 3v7ZM6.293 6.293A1 1 0 0 0 6 7v7h.26c.084-.169.183-.328.286-.472.307-.43.734-.85 1.248-1.217a6.974 6.974 0 0 1 2.245-1.052C9.42 10.777 9 10.024 9 9a3 3 0 1 1 6 0c0 1.024-.42 1.777-1.039 2.26a6.973 6.973 0 0 1 2.245 1.051c.514.367.941.787 1.248 1.217.104.144.202.303.287.472H18V7a1 1 0 0 0-1-1H7a1 1 0 0 0-.707.293ZM15.127 14a4.217 4.217 0 0 0-.083-.061C14.324 13.425 13.276 13 12 13s-2.325.425-3.044.939L8.873 14h6.254ZM20 16v1a1 1 0 0 1-1 1H5a1 1 0 0 1-1-1v-1h16Zm-7-7a1 1 0 1 1-2 0 1 1 0 0 1 2 0Z" fill="currentColor"></path>
  </symbol>
  <symbol xmlns="http://www.w3.org/2000/svg" viewBox="0 0 24 24" id="level">
    <path d="M21 18h-2v-3a1 1 0 0 0-1-1h-5v-2.71l1.13.59a1 1 0 0 0 1.45-1.05l-.4-2.37 1.72-1.69a1 1 0 0 0 .26-1 1 1 0 0 0-.81-.68L14 4.72l-1.1-2.16a1 1 0 0 0-1.8 0L10 4.72l-2.39.35a1 1 0 0 0-.81.68 1 1 0 0 0 .26 1l1.76 1.71-.4 2.37a1 1 0 0 0 1.45 1.05l1.13-.59V14H6a1 1 0 0 0-1 1v3H3a1 1 0 0 0-1 1v2a1 1 0 1 0 2 0v-1h4v1a1 1 0 1 0 2 0v-2a1 1 0 0 0-1-1H7v-2h10v2h-2a1 1 0 0 0-1 1v2a1 1 0 0 0 2 0v-1h4v1a1 1 0 0 0 2 0v-2a1 1 0 0 0-1-1Zm-9-9.37a1 1 0 0 0-.47.12l-.8.42.15-.9a1 1 0 0 0-.29-.88l-.65-.64.9-.13a1 1 0 0 0 .76-.54l.4-.82.4.82a1 1 0 0 0 .76.54l.9.13-.65.64a1 1 0 0 0-.29.88l.15.9-.8-.42a1 1 0 0 0-.47-.12Z" fill="currentColor"></path>
  </symbol>
  <symbol xmlns="http://www.w3.org/2000/svg" viewBox="0 0 24 24" id="profile">
    <path d="M12 2a10 10 0 0 0-7.35 16.76 10.001 10.001 0 0 0 14.7 0A9.999 9.999 0 0 0 12 2Zm0 18a8 8 0 0 1-5.55-2.25 6 6 0 0 1 11.1 0A8 8 0 0 1 12 20Zm-2-10a2 2 0 1 1 4 0 2 2 0 0 1-4 0Zm8.91 6A8 8 0 0 0 15 12.62a4 4 0 1 0-6 0A8 8 0 0 0 5.09 16 7.92 7.92 0 0 1 4 12a8 8 0 1 1 16 0 7.92 7.92 0 0 1-1.09 4Z" fill="currentColor"></path>
  </symbol>
  <symbol xmlns="http://www.w3.org/2000/svg" viewBox="0 0 24 24" id="retake">
    <path d="M19.91 15.51h-4.53a1 1 0 0 0 0 2h2.4A8 8 0 0 1 4 12a1 1 0 1 0-2 0 10 10 0 0 0 16.88 7.23V21a1 1 0 0 0 2 0v-4.5a1 1 0 0 0-.97-.99ZM12 2a10 10 0 0 0-6.88 2.77V3a1 1 0 0 0-2 0v4.5a1 1 0 0 0 1 1h4.5a1 1 0 0 0 0-2h-2.4A8 8 0 0 1 20 12a1 1 0 0 0 2 0A10 10 0 0 0 12 2Z" fill="currentColor"></path>
  </symbol>
  <symbol xmlns="http://www.w3.org/2000/svg" viewBox="0 0 24 24" id="sandclock">
    <path d="M19 21h-1v-1.667a4.998 4.998 0 0 0-.3-1.678.958.958 0 0 0-.035-.084A4.976 4.976 0 0 0 17 16.334l-1.4-1.867a3.02 3.02 0 0 1-.6-1.801v-1.01a3.021 3.021 0 0 1 .878-2.12l.658-.658a4.946 4.946 0 0 0 1.396-2.838c0-.014.008-.026.008-.04l-.003-.014c.035-.213.056-.428.063-.643V3h1a1 1 0 1 0 0-2H5a1 1 0 0 0 0 2h1v2.343c.007.215.028.43.063.643L6.06 6c0 .014.008.026.008.04a4.946 4.946 0 0 0 1.396 2.838l.658.657A3.02 3.02 0 0 1 9 11.656v1.01a3.022 3.022 0 0 1-.6 1.8L7 16.335a4.983 4.983 0 0 0-.665 1.237.968.968 0 0 0-.035.084 5.003 5.003 0 0 0-.3 1.678V21H5a1 1 0 0 0 0 2h14a1 1 0 0 0 0-2ZM8 5V3h8v2H8Zm.878 2.464A2.97 2.97 0 0 1 8.502 7h6.996a2.97 2.97 0 0 1-.376.464l-.658.657A4.96 4.96 0 0 0 13.043 11h-2.085a4.96 4.96 0 0 0-1.422-2.879l-.658-.657Zm1.123 8.202c.578-.775.921-1.7.988-2.666h2.022c.067.965.41 1.89.989 2.666L15 17H9l1-1.334ZM16 21H8v-1.667c.003-.111.012-.223.027-.333h7.946c.015.11.024.222.027.333V21Z" fill="currentColor"></path>
  </symbol>
  <symbol xmlns="http://www.w3.org/2000/svg" viewBox="0 0 24 24" id="test">
    <path d="M20 8.94a1.307 1.307 0 0 0-.06-.27v-.09a1.07 1.07 0 0 0-.19-.28l-6-6a1.071 1.071 0 0 0-.28-.19.32.32 0 0 0-.09 0 .88.88 0 0 0-.33-.11H7a3 3 0 0 0-3 3v14a3 3 0 0 0 3 3h10a3 3 0 0 0 3-3V8.94Zm-6-3.53L16.59 8H15a1 1 0 0 1-1-1V5.41ZM18 19a1 1 0 0 1-1 1H7a1 1 0 0 1-1-1V5a1 1 0 0 1 1-1h5v3a3 3 0 0 0 3 3h3v9Zm-3.71-6.71L11 15.59l-1.29-1.3a1.004 1.004 0 1 0-1.42 1.42l2 2a1.002 1.002 0 0 0 1.42 0l4-4a1.004 1.004 0 1 0-1.42-1.42Z" fill="currentColor"></path>
  </symbol>
  <symbol xmlns="http://www.w3.org/2000/svg" viewBox="0 0 24 24" id="video">
    <path d="M21.53 7.15a1 1 0 0 0-1 0L17 8.89A3 3 0 0 0 14 6H5a3 3 0 0 0-3 3v6a3 3 0 0 0 3 3h9a3 3 0 0 0 3-2.89l3.56 1.78A1 1 0 0 0 21 17a1 1 0 0 0 .875-.514A1 1 0 0 0 22 16V8a1 1 0 0 0-.47-.85ZM15 15a1 1 0 0 1-1 1H5a1 1 0 0 1-1-1V9a1 1 0 0 1 1-1h9a1 1 0 0 1 1 1v6Zm5-.62-3-1.5v-1.76l3-1.5v4.76Z" fill="currentColor"></path>
  </symbol>
  <symbol fill="none" xmlns="http://www.w3.org/2000/svg" viewBox="0 0 24 24" id="video-controls__fullscreen">
    <path d="M8 15H3C2.4 15 2 15.4 2 16C2 16.6 2.4 17 3 17H7V21C7 21.6 7.4 22 8 22C8.6 22 9 21.6 9 21V16C9 15.4 8.6 15 8 15ZM8 2C7.4 2 7 2.4 7 3V7H3C2.4 7 2 7.4 2 8C2 8.6 2.4 9 3 9H8C8.6 9 9 8.6 9 8V3C9 2.4 8.6 2 8 2ZM16 9H21C21.6 9 22 8.6 22 8C22 7.4 21.6 7 21 7H17V3C17 2.4 16.6 2 16 2C15.4 2 15 2.4 15 3V8C15 8.6 15.4 9 16 9ZM21 15H16C15.4 15 15 15.4 15 16V21C15 21.6 15.4 22 16 22C16.6 22 17 21.6 17 21V17H21C21.6 17 22 16.6 22 16C22 15.4 21.6 15 21 15Z" fill="currentColor"></path>
  </symbol>
  <symbol fill="none" xmlns="http://www.w3.org/2000/svg" viewBox="0 0 24 24" id="video-controls__sound">
    <path d="M12.43 4.10003C12.2676 4.02977 12.0895 4.00386 11.9138 4.02495C11.7381 4.04603 11.5712 4.11335 11.43 4.22003L6.65 8.00003H3C2.73478 8.00003 2.48043 8.10539 2.29289 8.29293C2.10536 8.48046 2 8.73482 2 9.00003V15C2 15.2652 2.10536 15.5196 2.29289 15.7071C2.48043 15.8947 2.73478 16 3 16H6.65L11.38 19.78C11.5559 19.9212 11.7744 19.9987 12 20C12.1494 20.0025 12.297 19.9682 12.43 19.9C12.6002 19.819 12.744 19.6915 12.8448 19.5323C12.9457 19.373 12.9995 19.1885 13 19V5.00003C12.9995 4.81155 12.9457 4.62705 12.8448 4.46781C12.744 4.30857 12.6002 4.18108 12.43 4.10003V4.10003ZM11 16.92L7.62 14.22C7.44406 14.0789 7.22556 14.0013 7 14H4V10H7C7.22556 9.99872 7.44406 9.92119 7.62 9.78003L11 7.08003V16.92ZM15.14 4.09003C15.0087 4.07165 14.875 4.07931 14.7467 4.11258C14.6183 4.14585 14.4977 4.20407 14.3919 4.28393C14.286 4.36379 14.1969 4.46372 14.1297 4.57801C14.0625 4.6923 14.0184 4.81871 14 4.95003C13.9816 5.08135 13.9893 5.21501 14.0225 5.34337C14.0558 5.47173 14.114 5.59229 14.1939 5.69814C14.3552 5.91194 14.5948 6.0529 14.86 6.09003C16.2762 6.30828 17.5676 7.02616 18.5004 8.11382C19.4333 9.20148 19.9462 10.5871 19.9462 12.02C19.9462 13.453 19.4333 14.8386 18.5004 15.9262C17.5676 17.0139 16.2762 17.7318 14.86 17.95C14.5948 17.9686 14.3478 18.0918 14.1734 18.2924C13.999 18.4931 13.9114 18.7548 13.93 19.02C13.9486 19.2852 14.0717 19.5322 14.2724 19.7066C14.4731 19.881 14.7348 19.9686 15 19.95H15.14C17.0328 19.6637 18.7602 18.7081 20.0086 17.2567C21.2569 15.8053 21.9434 13.9544 21.9434 12.04C21.9434 10.1257 21.2569 8.27475 20.0086 6.82337C18.7602 5.372 17.0328 4.41638 15.14 4.13003V4.09003ZM14.68 13.87C14.4148 13.9125 14.1773 14.0585 14.0198 14.2761C13.8622 14.4936 13.7976 14.7648 13.84 15.03C13.8824 15.2952 14.0285 15.5327 14.246 15.6903C14.4636 15.8478 14.7348 15.9125 15 15.87C15.1085 15.8688 15.2163 15.852 15.32 15.82C16.099 15.5438 16.7733 15.033 17.2502 14.3579C17.7271 13.6828 17.9832 12.8766 17.9832 12.05C17.9832 11.2235 17.7271 10.4172 17.2502 9.74214C16.7733 9.06705 16.099 8.55627 15.32 8.28003C15.068 8.19516 14.7927 8.21386 14.5545 8.33201C14.3164 8.45015 14.1349 8.65808 14.05 8.91003C13.9651 9.16199 13.9838 9.43734 14.102 9.67551C14.2201 9.91368 14.428 10.0952 14.68 10.18C15.0595 10.324 15.3862 10.5799 15.6167 10.9139C15.8472 11.2479 15.9707 11.6442 15.9707 12.05C15.9707 12.4559 15.8472 12.8521 15.6167 13.1861C15.3862 13.5201 15.0595 13.7761 14.68 13.92V13.87Z" fill="currentColor"></path>
  </symbol>
  <symbol fill="none" xmlns="http://www.w3.org/2000/svg" viewBox="0 0 24 24" id="video-controls__play">
    <path d="M19.2411 8.99888L9.28661 3.45836C8.74796 3.15649 8.13658 2.99835 7.51458 3.00001C6.89257 3.00167 6.2821 3.16306 5.74517 3.4678C5.20824 3.77254 4.76397 4.20976 4.45749 4.73506C4.15102 5.26036 3.99325 5.85502 4.00022 6.45864V17.5797C4.00022 18.4868 4.37153 19.3568 5.03245 19.9982C5.69338 20.6396 6.58979 21 7.52448 21C8.14322 20.999 8.75085 20.8403 9.28661 20.54L19.2411 14.9994C19.776 14.699 20.22 14.2673 20.5288 13.7478C20.8375 13.2282 21 12.6389 21 12.0392C21 11.4394 20.8375 10.8501 20.5288 10.3306C20.22 9.81098 19.776 9.29932 19.2411 8.99888Z" fill="currentColor"></path>
  </symbol>
</svg>
