<!-- SVG Sprite -->
<svg width="0" height="0" class="hidden">
  <symbol xmlns="http://www.w3.org/2000/svg" viewBox="0 0 24 24" id="alert">
    <path d="M12 16a1 1 0 1 0 0 2 1 1 0 0 0 0-2Zm10.67 1.47-8.05-14a3 3 0 0 0-5.24 0l-8 14A3 3 0 0 0 3.94 22h16.12a3 3 0 0 0 2.61-4.53Zm-1.73 2a1.001 1.001 0 0 1-.88.51H3.94a1 1 0 0 1-.88-.51 1 1 0 0 1 0-1l8-14a1 1 0 0 1 1.78 0l8.05 14a1 1 0 0 1 .05 1.02v-.02ZM12 8a1 1 0 0 0-1 1v4a1 1 0 1 0 2 0V9a1 1 0 0 0-1-1Z" fill="currentColor"></path>
  </symbol>
  <symbol xmlns="http://www.w3.org/2000/svg" viewBox="0 0 24 24" id="arrow-back">
    <path fill-rule="evenodd" clip-rule="evenodd" d="m10.657 19.071-6.364-6.364a1 1 0 0 1 0-1.414l6.364-6.364a1 1 0 1 1 1.414 1.414L7.414 11H19a1 1 0 1 1 0 2H7.414l4.657 4.657a1 1 0 0 1-1.414 1.414Z" fill="currentColor"></path>
  </symbol>
  <symbol xmlns="http://www.w3.org/2000/svg" viewBox="0 0 24 24" id="arrow-forward">
    <path fill-rule="evenodd" clip-rule="evenodd" d="m13.343 19.071 6.364-6.364a1 1 0 0 0 0-1.414L13.343 4.93a1 1 0 1 0-1.414 1.414L16.586 11H5a1 1 0 1 0 0 2h11.586l-4.657 4.657a1 1 0 0 0 1.414 1.414Z" fill="currentColor"></path>
  </symbol>
  <symbol xmlns="http://www.w3.org/2000/svg" viewBox="0 0 24 24" id="book">
    <path d="M21.17 2.06A13.1 13.1 0 0 0 19 1.87a12.94 12.94 0 0 0-7 2.05 12.94 12.94 0 0 0-7-2 13.1 13.1 0 0 0-2.17.19 1 1 0 0 0-.83 1v12a1 1 0 0 0 1.17 1 10.9 10.9 0 0 1 8.25 1.91l.12.07h.11a.91.91 0 0 0 .7 0h.11l.12-.07A10.9 10.9 0 0 1 20.83 16 1 1 0 0 0 22 15V3a1 1 0 0 0-.83-.94ZM11 15.35a12.87 12.87 0 0 0-6-1.48H4v-10c.333-.02.667-.02 1 0a10.86 10.86 0 0 1 6 1.8v9.68Zm9-1.44h-1a12.87 12.87 0 0 0-6 1.48V5.67a10.86 10.86 0 0 1 6-1.8c.333-.02.667-.02 1 0v10.04Zm1.17 4.15a13.11 13.11 0 0 0-2.17-.19 12.94 12.94 0 0 0-7 2.05 12.94 12.94 0 0 0-7-2.05 13.11 13.11 0 0 0-2.17.19A1.002 1.002 0 0 0 2 19.21a1 1 0 0 0 1.17.79 10.9 10.9 0 0 1 8.25 1.91 1 1 0 0 0 1.16 0A10.9 10.9 0 0 1 20.83 20a1 1 0 0 0 1.17-.79 1 1 0 0 0-.83-1.15Z" fill="currentColor"></path>
  </symbol>
  <symbol xmlns="http://www.w3.org/2000/svg" viewBox="0 0 24 24" id="chevrone-down">
    <path d="M17 9.17a1 1 0 0 0-1.41 0L12 12.71 8.46 9.17a1 1 0 1 0-1.41 1.42l4.24 4.24a1.002 1.002 0 0 0 1.42 0L17 10.59a1.002 1.002 0 0 0 0-1.42Z" fill="currentColor"></path>
  </symbol>
  <symbol xmlns="http://www.w3.org/2000/svg" viewBox="0 0 24 24" id="calendar">
    <path d="M19 4h-2V3a1 1 0 0 0-2 0v1H9V3a1 1 0 0 0-2 0v1H5a3 3 0 0 0-3 3v12a3 3 0 0 0 3 3h14a3 3 0 0 0 3-3V7a3 3 0 0 0-3-3Zm1 15a1 1 0 0 1-1 1H5a1 1 0 0 1-1-1v-7h16v7Zm0-9H4V7a1 1 0 0 1 1-1h2v1a1 1 0 0 0 2 0V6h6v1a1 1 0 0 0 2 0V6h2a1 1 0 0 1 1 1v3Z" fill="currentColor"></path>
  </symbol>
  <symbol xmlns="http://www.w3.org/2000/svg" viewBox="0 0 24 24" id="chevrone-right">
    <path d="M9.29 16.978a1 1 0 0 1 0-1.41l3.54-3.59-3.54-3.54a1 1 0 1 1 1.42-1.41l4.24 4.24a1.001 1.001 0 0 1 0 1.42l-4.24 4.29a.999.999 0 0 1-1.42 0Z" fill="currentColor"></path>
  </symbol>
  <symbol xmlns="http://www.w3.org/2000/svg" viewBox="0 0 24 24" id="chevrone-up">
    <path d="M17 14.835a1 1 0 0 1-1.41 0L12 11.295l-3.54 3.54a1 1 0 1 1-1.41-1.42l4.24-4.24a1.001 1.001 0 0 1 1.42 0l4.29 4.24a1 1 0 0 1 0 1.42Z" fill="currentColor"></path>
  </symbol>
  <symbol xmlns="http://www.w3.org/2000/svg" viewBox="0 0 24 24" id="clock">
    <path d="M11 2a10 10 0 1 0 0 20 10 10 0 0 0 0-20Zm0 18a8 8 0 1 1 0-16 8 8 0 0 1 0 16Zm0-14a1 1 0 0 0-1 1v4.42l-2.1 1.21a1 1 0 0 0 .5 1.87 1 1 0 0 0 .5-.13l2.6-1.5.09-.09.16-.13a.863.863 0 0 0 .1-.16.891.891 0 0 0 .08-.17.65.65 0 0 0 .05-.2L12 12V7a1 1 0 0 0-1-1Z" fill="currentColor"></path>
  </symbol>
  <symbol xmlns="http://www.w3.org/2000/svg" viewBox="0 0 24 24" id="close">
    <path d="m13.41 12 4.3-4.29a1.004 1.004 0 1 0-1.42-1.42L12 10.59l-4.29-4.3a1.004 1.004 0 0 0-1.42 1.42l4.3 4.29-4.3 4.29a1 1 0 0 0 0 1.42.998.998 0 0 0 1.42 0l4.29-4.3 4.29 4.3a.998.998 0 0 0 1.42 0 .997.997 0 0 0 .219-1.095.998.998 0 0 0-.22-.325L13.41 12Z" fill="currentColor"></path>
  </symbol>
  <symbol xmlns="http://www.w3.org/2000/svg" viewBox="0 0 24 24" id="completed">
    <path d="M12 2C6.5 2 2 6.5 2 12s4.5 10 10 10 10-4.5 10-10S17.5 2 12 2Zm4.2 8.3-4.8 4.8c-.4.4-1 .4-1.4 0l-2.2-2.2c-.4-.4-.4-1 0-1.4.4-.4 1-.4 1.4 0l1.5 1.5 4.1-4.1c.4-.4 1-.4 1.4 0 .4.4.4 1 0 1.4Z" fill="currentColor"></path>
  </symbol>
  <symbol xmlns="http://www.w3.org/2000/svg" viewBox="0 0 24 24" id="custom-checkbox-round-default">
    <path fill-rule="evenodd" clip-rule="evenodd" d="M12 1a11 11 0 1 0 0 22 11 11 0 0 0 0-22Zm0 20a9 9 0 1 1 0-18 9 9 0 0 1 0 18Z" fill="currentColor"></path>
  </symbol>
  <symbol xmlns="http://www.w3.org/2000/svg" viewBox="0 0 24 24" id="courses">
    <path d="m21.49 10.19-1-.55-9-5h-.11a1.06 1.06 0 0 0-.19-.06h-.37a1.17 1.17 0 0 0-.2.06h-.11l-9 5a1 1 0 0 0 0 1.74L4 12.76v4.74a3 3 0 0 0 3 3h8a3 3 0 0 0 3-3v-4.74l2-1.12v2.86a1 1 0 1 0 2 0v-3.44a1 1 0 0 0-.51-.87ZM16 17.5a1 1 0 0 1-1 1H7a1 1 0 0 1-1-1v-3.63l4.51 2.5.15.06h.09c.083.01.167.01.25 0 .083.01.167.01.25 0h.09a.47.47 0 0 0 .15-.06l4.51-2.5v3.63Zm-5-3.14L4.06 10.5 11 6.64l6.94 3.86L11 14.36Z" fill="currentColor"></path>
  </symbol>
  <symbol xmlns="http://www.w3.org/2000/svg" viewBox="0 0 24 24" id="custom-checkbox-round-selected">
    <path d="M12 13a1 1 0 1 1 0-2 1 1 0 0 1 0 2Z" fill="currentColor"></path>
    <path fill-rule="evenodd" clip-rule="evenodd" d="M12 17a5 5 0 1 1 0-9.999A5 5 0 0 1 12 17Zm-1.667-7.494a3 3 0 1 1 3.334 4.988 3 3 0 0 1-3.334-4.988Z" fill="currentColor"></path>
    <path fill-rule="evenodd" clip-rule="evenodd" d="M12 1a11 11 0 1 0 0 22 11 11 0 0 0 0-22Zm0 20a9 9 0 1 1 0-18 9 9 0 0 1 0 18Z" fill="currentColor"></path>
    <path fill-rule="evenodd" clip-rule="evenodd" d="M12 9a3 3 0 1 0 0 6 3 3 0 0 0 0-6Zm-.556 3.832a1 1 0 1 0 1.111-1.663 1 1 0 0 0-1.11 1.662Z" fill="currentColor"></path>
  </symbol>
  <symbol xmlns="http://www.w3.org/2000/svg" viewBox="0 0 24 24" id="custom-checkbox-square-default">
    <path fill-rule="evenodd" clip-rule="evenodd" d="M18 4H6a2 2 0 0 0-2 2v12a2 2 0 0 0 2 2h12a2 2 0 0 0 2-2V6a2 2 0 0 0-2-2ZM6 2a4 4 0 0 0-4 4v12a4 4 0 0 0 4 4h12a4 4 0 0 0 4-4V6a4 4 0 0 0-4-4H6Z" fill="currentColor"></path>
  </symbol>
  <symbol xmlns="http://www.w3.org/2000/svg" viewBox="0 0 24 24" id="custom-checkbox-square-selected">
    <path fill-rule="evenodd" clip-rule="evenodd" d="M18 4H6a2 2 0 0 0-2 2v12a2 2 0 0 0 2 2h12a2 2 0 0 0 2-2V6a2 2 0 0 0-2-2ZM6 2a4 4 0 0 0-4 4v12a4 4 0 0 0 4 4h12a4 4 0 0 0 4-4V6a4 4 0 0 0-4-4H6Z" fill="currentColor"></path>
    <path d="M10.536 14.969a.998.998 0 0 1-.326-.219l-1.92-1.92a1.004 1.004 0 1 1 1.42-1.42l1.21 1.22 3.37-3.38a1.004 1.004 0 0 1 1.42 1.42l-4.08 4.08a1 1 0 0 1-1.094.219Z" fill="currentColor"></path>
  </symbol>
  <symbol xmlns="http://www.w3.org/2000/svg" viewBox="0 0 24 24" id="document">
    <path d="M20 8.94a1.307 1.307 0 0 0-.06-.27v-.09a1.07 1.07 0 0 0-.19-.28l-6-6a1.071 1.071 0 0 0-.28-.19h-.09L13.06 2H7a3 3 0 0 0-3 3v14a3 3 0 0 0 3 3h10a3 3 0 0 0 3-3V8.94Zm-6-3.53L16.59 8H14V5.41ZM18 19a1 1 0 0 1-1 1H7a1 1 0 0 1-1-1V5a1 1 0 0 1 1-1h5v5a1 1 0 0 0 1 1h5v9Z" fill="currentColor"></path>
  </symbol>
  <symbol xmlns="http://www.w3.org/2000/svg" viewBox="0 0 24 24" id="failed">
    <path d="M12 2C6.5 2 2 6.5 2 12s4.5 10 10 10 10-4.5 10-10S17.5 2 12 2Zm3.7 12.3c.4.4.4 1 0 1.4-.4.4-1 .4-1.4 0L12 13.4l-2.3 2.3c-.4.4-1 .4-1.4 0-.4-.4-.4-1 0-1.4l2.3-2.3-2.3-2.3c-.4-.4-.4-1 0-1.4.4-.4 1-.4 1.4 0l2.3 2.3 2.3-2.3c.4-.4 1-.4 1.4 0 .4.4.4 1 0 1.4L13.4 12l2.3 2.3Z" fill="currentColor"></path>
  </symbol>
  <symbol xmlns="http://www.w3.org/2000/svg" viewBox="0 0 24 24" id="laptop">
    <path fill-rule="evenodd" clip-rule="evenodd" d="M20 14h1a1 1 0 0 1 1 1v2a3 3 0 0 1-3 3H5a3 3 0 0 1-3-3v-2a1 1 0 0 1 1-1h1V7a3 3 0 0 1 3-3h10a3 3 0 0 1 3 3v7ZM6.293 6.293A1 1 0 0 0 6 7v7h.26c.084-.169.183-.328.286-.472.307-.43.734-.85 1.248-1.217a6.974 6.974 0 0 1 2.245-1.052C9.42 10.777 9 10.024 9 9a3 3 0 1 1 6 0c0 1.024-.42 1.777-1.039 2.26a6.973 6.973 0 0 1 2.245 1.051c.514.367.941.787 1.248 1.217.104.144.202.303.287.472H18V7a1 1 0 0 0-1-1H7a1 1 0 0 0-.707.293ZM15.127 14a4.217 4.217 0 0 0-.083-.061C14.324 13.425 13.276 13 12 13s-2.325.425-3.044.939L8.873 14h6.254ZM20 16v1a1 1 0 0 1-1 1H5a1 1 0 0 1-1-1v-1h16Zm-7-7a1 1 0 1 1-2 0 1 1 0 0 1 2 0Z" fill="currentColor"></path>
  </symbol>
  <symbol xmlns="http://www.w3.org/2000/svg" viewBox="0 0 24 24" id="level">
    <path d="M21 18h-2v-3a1 1 0 0 0-1-1h-5v-2.71l1.13.59a1 1 0 0 0 1.45-1.05l-.4-2.37 1.72-1.69a1 1 0 0 0 .26-1 1 1 0 0 0-.81-.68L14 4.72l-1.1-2.16a1 1 0 0 0-1.8 0L10 4.72l-2.39.35a1 1 0 0 0-.81.68 1 1 0 0 0 .26 1l1.76 1.71-.4 2.37a1 1 0 0 0 1.45 1.05l1.13-.59V14H6a1 1 0 0 0-1 1v3H3a1 1 0 0 0-1 1v2a1 1 0 1 0 2 0v-1h4v1a1 1 0 1 0 2 0v-2a1 1 0 0 0-1-1H7v-2h10v2h-2a1 1 0 0 0-1 1v2a1 1 0 0 0 2 0v-1h4v1a1 1 0 0 0 2 0v-2a1 1 0 0 0-1-1Zm-9-9.37a1 1 0 0 0-.47.12l-.8.42.15-.9a1 1 0 0 0-.29-.88l-.65-.64.9-.13a1 1 0 0 0 .76-.54l.4-.82.4.82a1 1 0 0 0 .76.54l.9.13-.65.64a1 1 0 0 0-.29.88l.15.9-.8-.42a1 1 0 0 0-.47-.12Z" fill="currentColor"></path>
  </symbol>
  <symbol xmlns="http://www.w3.org/2000/svg" viewBox="0 0 24 24" id="profile">
    <path d="M12 2a10 10 0 0 0-7.35 16.76 10.001 10.001 0 0 0 14.7 0A9.999 9.999 0 0 0 12 2Zm0 18a8 8 0 0 1-5.55-2.25 6 6 0 0 1 11.1 0A8 8 0 0 1 12 20Zm-2-10a2 2 0 1 1 4 0 2 2 0 0 1-4 0Zm8.91 6A8 8 0 0 0 15 12.62a4 4 0 1 0-6 0A8 8 0 0 0 5.09 16 7.92 7.92 0 0 1 4 12a8 8 0 1 1 16 0 7.92 7.92 0 0 1-1.09 4Z" fill="currentColor"></path>
  </symbol>
  <symbol xmlns="http://www.w3.org/2000/svg" viewBox="0 0 24 24" id="retake">
    <path d="M19.91 15.51h-4.53a1 1 0 0 0 0 2h2.4A8 8 0 0 1 4 12a1 1 0 1 0-2 0 10 10 0 0 0 16.88 7.23V21a1 1 0 0 0 2 0v-4.5a1 1 0 0 0-.97-.99ZM12 2a10 10 0 0 0-6.88 2.77V3a1 1 0 0 0-2 0v4.5a1 1 0 0 0 1 1h4.5a1 1 0 0 0 0-2h-2.4A8 8 0 0 1 20 12a1 1 0 0 0 2 0A10 10 0 0 0 12 2Z" fill="currentColor"></path>
  </symbol>
  <symbol xmlns="http://www.w3.org/2000/svg" viewBox="0 0 24 24" id="sandclock">
    <path d="M19 21h-1v-1.667a4.998 4.998 0 0 0-.3-1.678.958.958 0 0 0-.035-.084A4.976 4.976 0 0 0 17 16.334l-1.4-1.867a3.02 3.02 0 0 1-.6-1.801v-1.01a3.021 3.021 0 0 1 .878-2.12l.658-.658a4.946 4.946 0 0 0 1.396-2.838c0-.014.008-.026.008-.04l-.003-.014c.035-.213.056-.428.063-.643V3h1a1 1 0 1 0 0-2H5a1 1 0 0 0 0 2h1v2.343c.007.215.028.43.063.643L6.06 6c0 .014.008.026.008.04a4.946 4.946 0 0 0 1.396 2.838l.658.657A3.02 3.02 0 0 1 9 11.656v1.01a3.022 3.022 0 0 1-.6 1.8L7 16.335a4.983 4.983 0 0 0-.665 1.237.968.968 0 0 0-.035.084 5.003 5.003 0 0 0-.3 1.678V21H5a1 1 0 0 0 0 2h14a1 1 0 0 0 0-2ZM8 5V3h8v2H8Zm.878 2.464A2.97 2.97 0 0 1 8.502 7h6.996a2.97 2.97 0 0 1-.376.464l-.658.657A4.96 4.96 0 0 0 13.043 11h-2.085a4.96 4.96 0 0 0-1.422-2.879l-.658-.657Zm1.123 8.202c.578-.775.921-1.7.988-2.666h2.022c.067.965.41 1.89.989 2.666L15 17H9l1-1.334ZM16 21H8v-1.667c.003-.111.012-.223.027-.333h7.946c.015.11.024.222.027.333V21Z" fill="currentColor"></path>
  </symbol>
  <symbol xmlns="http://www.w3.org/2000/svg" viewBox="0 0 24 24" id="test">
    <path d="M20 8.94a1.307 1.307 0 0 0-.06-.27v-.09a1.07 1.07 0 0 0-.19-.28l-6-6a1.071 1.071 0 0 0-.28-.19.32.32 0 0 0-.09 0 .88.88 0 0 0-.33-.11H7a3 3 0 0 0-3 3v14a3 3 0 0 0 3 3h10a3 3 0 0 0 3-3V8.94Zm-6-3.53L16.59 8H15a1 1 0 0 1-1-1V5.41ZM18 19a1 1 0 0 1-1 1H7a1 1 0 0 1-1-1V5a1 1 0 0 1 1-1h5v3a3 3 0 0 0 3 3h3v9Zm-3.71-6.71L11 15.59l-1.29-1.3a1.004 1.004 0 1 0-1.42 1.42l2 2a1.002 1.002 0 0 0 1.42 0l4-4a1.004 1.004 0 1 0-1.42-1.42Z" fill="currentColor"></path>
  </symbol>
  <symbol xmlns="http://www.w3.org/2000/svg" viewBox="0 0 24 24" id="video">
    <path d="M21.53 7.15a1 1 0 0 0-1 0L17 8.89A3 3 0 0 0 14 6H5a3 3 0 0 0-3 3v6a3 3 0 0 0 3 3h9a3 3 0 0 0 3-2.89l3.56 1.78A1 1 0 0 0 21 17a1 1 0 0 0 .875-.514A1 1 0 0 0 22 16V8a1 1 0 0 0-.47-.85ZM15 15a1 1 0 0 1-1 1H5a1 1 0 0 1-1-1V9a1 1 0 0 1 1-1h9a1 1 0 0 1 1 1v6Zm5-.62-3-1.5v-1.76l3-1.5v4.76Z" fill="currentColor"></path>
  </symbol>
</svg>